<svg viewBox="0 0 48 48" fill="none" xmlns="http://www.w3.org/2000/svg">
<path d="M39.309 21.6698L35 25.5L10.4124 45.17C10.3262 45.239 10.2082 45.1379 10.2633 45.0421L21.5 25.5H8.28014C8.18616 25.5 8.14408 25.3821 8.21682 25.3226L13.5 21L35.5841 3.8235C35.6712 3.75572 35.7878 3.85839 35.7315 3.95339L25.5 21.2308L39.2445 21.4951C39.3354 21.4968 39.377 21.6093 39.309 21.6698Z" fill="#FFE53C"/>
<path d="M35 25.5L39.309 21.6698C39.377 21.6093 39.3354 21.4968 39.2445 21.4951L25.5 21.2308M35 25.5L10.4124 45.17C10.3262 45.239 10.2082 45.1379 10.2633 45.0421L21.5 25.5M35 25.5H21.5M13.5 21L8.21682 25.3226C8.14408 25.3821 8.18616 25.5 8.28014 25.5H21.5M13.5 21L35.5841 3.8235C35.6712 3.75572 35.7878 3.85839 35.7315 3.95339L25.5 21.2308M13.5 21L25.5 21.2308" stroke="#FFE53C" stroke-width="1.5"/>
<path d="M32.4705 21.531L11.5 43.5L38.7774 21.6781C38.8512 21.619 38.8095 21.5 38.7149 21.5H32.5428C32.5155 21.5 32.4893 21.5112 32.4705 21.531Z" fill="#F8D133"/>
<path d="M36.7286 3.36488L21.1486 20.8334C21.0911 20.8979 21.1368 21 21.2232 21H25.9444C25.979 21 26.0111 20.9821 26.0293 20.9528L36.8882 3.48424C36.9528 3.38035 36.81 3.27359 36.7286 3.36488Z" fill="#F8D133"/>
<path d="M21.3205 26H7.28595C7.19133 26 7.14963 25.8808 7.22363 25.8218L38.5344 0.871042C38.6226 0.800741 38.7416 0.907537 38.6812 1.0028L26.0974 20.8464C26.0552 20.913 26.103 21 26.1818 21H40.7149C40.8094 21 40.8512 21.119 40.7774 21.1781L8.95253 46.638C8.86484 46.7081 8.74592 46.6027 8.80503 46.5073L21.4055 26.1526C21.4468 26.086 21.3988 26 21.3205 26Z" stroke="#C39215" stroke-width="1.5"/>
</svg>
